<svg width="128" height="128" viewBox="0 0 128 128" fill="none" xmlns="http://www.w3.org/2000/svg" role="img" aria-label="Uni-Strategy logo dark">
  <defs>
    <linearGradient id="pencil" x1="72" y1="58" x2="88" y2="80" gradientUnits="userSpaceOnUse">
      <stop stop-color="#EAF2FF"/>
      <stop offset="1" stop-color="#C7D9FF"/>
    </linearGradient>
  </defs>
  <rect x="8" y="8" width="112" height="112" rx="26" fill="#FFFFFF"/>
  <path d="M34 42C43.2 38.3 51.7 38.7 60 43V89C51.8 84.7 43.4 84.3 34 88V42Z" fill="#111827"/>
  <path d="M94 42C84.8 38.3 76.3 38.7 68 43V89C76.2 84.7 84.6 84.3 94 88V42Z" fill="#111827"/>
  <path d="M42 60L56 60L56 68L42 68V60ZM42 73L56 73L56 81L42 81V73Z" fill="#FFFFFF"/>
  <path d="M72 68L82 58L88 64L72 80L66 74L72 68Z" fill="url(#pencil)"/>
</svg>
